<?xml version="1.0" ?><!DOCTYPE svg  PUBLIC '-//W3C//DTD SVG 1.1//EN'  'http://www.w3.org/Graphics/SVG/1.1/DTD/svg11.dtd'><svg height="512px" style="enable-background:new 0 0 512 512;" version="1.1" viewBox="0 0 512 512" width="512px" xml:space="preserve" xmlns="http://www.w3.org/2000/svg" xmlns:xlink="http://www.w3.org/1999/xlink"><g id="_x36_83_x2C__home_x2C__love_x2C__heart_x2C__wedding"><g><polygon points="396.45,72.275 396.45,132.045 351.14,112.765 351.14,72.275   " style="fill:#FFC230;"/><polygon points="360.199,81.975 396.45,81.975 396.45,72.275 351.14,72.275 351.14,112.765 360.199,116.62       " style="fill:#E8A623;"/><polygon points="468.94,162.895 468.94,208.195 405.51,186.604 256,135.705 97.43,189.695 43.06,208.195     43.06,162.895 256,72.275 351.14,112.765 396.45,132.045   " style="fill:#743629;"/><polygon points="46.394,172.728 259.334,82.108 354.473,122.598 399.783,141.878 468.94,171.31     468.94,162.895 396.45,132.045 351.14,112.765 256,72.275 43.06,162.895 43.06,208.195 46.394,207.061   " style="fill:#60281F;"/><path d="M405.51,186.604v248.12h-81.55v-95.141c0-18.76-7.61-35.76-19.91-48.049    c-12.29-12.301-29.29-19.91-48.05-19.91c-37.53,0-67.96,30.43-67.96,67.959v95.141H97.43v-245.03L256,135.705L405.51,186.604z     M296.78,191.334c0-10.7-8.69-19.38-19.41-19.38c-9.69,0-14.53,4.84-19.38,14.53c-4.841-9.69-9.69-14.53-19.381-14.53    c-10.699,0-19.38,8.68-19.38,19.38c0,19.38,19.38,30.41,38.761,49.79C277.37,221.745,296.78,210.715,296.78,191.334z" style="fill:#924B35;"/><g><g><g><path d="M242.643,226.896c4.083,4.085,8.812,8.218,13.813,12.714       C251.726,234.982,247.029,230.825,242.643,226.896z" style="fill:#874230;"/></g><g><polygon points="107.097,198.695 265.667,144.705 405.51,192.313 405.51,186.604 256,135.705        97.43,189.695 97.43,434.725 107.097,434.725      " style="fill:#874230;"/></g><g><path d="M333.627,434.725v-86.141c0-18.76-7.61-35.76-19.91-48.049       c-2.137-2.139-4.424-4.125-6.829-5.965c10.615,11.984,17.072,27.75,17.072,45.014v95.141H333.627z" style="fill:#874230;"/></g><g><path d="M255.634,182.204c0.799,1.307,1.579,2.725,2.356,4.281c0.406-0.811,0.813-1.575,1.222-2.318       C258.109,183.361,256.925,182.705,255.634,182.204z" style="fill:#874230;"/></g></g></g><path d="M277.37,171.955c10.72,0,19.41,8.68,19.41,19.38c0,19.38-19.41,30.41-38.79,49.79    c-19.381-19.38-38.761-30.41-38.761-49.79c0-10.7,8.681-19.38,19.38-19.38c9.69,0,14.54,4.84,19.381,14.53    C262.84,176.795,267.68,171.955,277.37,171.955z" style="fill:#EF3E5C;"/><g><path d="M270.656,193.141c4.85-9.69,9.689-14.53,19.381-14.53c0.692,0,1.375,0.039,2.049,0.11     c-3.561-4.136-8.826-6.766-14.716-6.766c-7.667,0-12.295,3.043-16.297,9.108C264.931,183.405,267.8,187.421,270.656,193.141z" style="fill:#EF3E5C;"/><path d="M231.896,197.99c0-10.7,8.68-19.38,19.38-19.38c0.659,0,1.291,0.027,1.907,0.072     c-3.633-4.482-7.982-6.728-14.574-6.728c-10.699,0-19.38,8.68-19.38,19.38c0,19.38,19.38,30.41,38.761,49.79     c0.919-0.919,1.837-1.813,2.754-2.696C245.178,224.357,231.896,214.033,231.896,197.99z" style="fill:#E42A53;"/></g><path d="M287.71,434.725h-99.67v-95.141c0-37.529,30.43-67.959,67.96-67.959    c18.76,0,35.76,7.609,48.05,19.91c12.3,12.289,19.91,29.289,19.91,48.049v95.141H287.71z" style="fill:#FFC592;"/><path d="M196.373,351.059c0-37.529,30.43-67.961,67.96-67.961c18.76,0,35.76,7.611,48.05,19.91    c0.846,0.846,1.663,1.717,2.463,2.605c-2.984-5.158-6.61-9.896-10.796-14.078c-12.29-12.301-29.29-19.91-48.05-19.91    c-37.53,0-67.96,30.43-67.96,67.959v95.141h8.333V351.059z" style="fill:#EFA873;"/><path d="M287.71,439.725c-2.762,0-5-2.238-5-5v-90.609c0-2.762,2.238-5,5-5s5,2.238,5,5v90.609    C292.71,437.486,290.472,439.725,287.71,439.725z" style="fill:#EFA873;"/><path d="M468.94,439.725H43.06c-2.761,0-5-2.238-5-5s2.239-5,5-5H468.94c2.762,0,5,2.238,5,5    S471.702,439.725,468.94,439.725z" style="fill:#743629;"/></g></g><g id="Layer_1"/></svg>