<?xml version="1.0" ?><!DOCTYPE svg  PUBLIC '-//W3C//DTD SVG 1.1//EN'  'http://www.w3.org/Graphics/SVG/1.1/DTD/svg11.dtd'><svg height="512px" style="enable-background:new 0 0 512 512;" version="1.1" viewBox="0 0 512 512" width="512px" xml:space="preserve" xmlns="http://www.w3.org/2000/svg" xmlns:xlink="http://www.w3.org/1999/xlink"><g id="_x36_57_x2C__heart_x2C__love_x2C__chain"><g><path d="M375.81,211.958L375.81,211.958c-2.763-0.001-5.001-2.24-5-5.001l0.021-91.341    c0.001-2.761,2.239-4.999,5-4.999h0.001c2.762,0.001,5,2.24,4.999,5.001l-0.021,91.341    C380.809,209.72,378.57,211.958,375.81,211.958z" style="fill:#415A6B;"/><path d="M375.81,334.817c-2.762,0-5-2.238-5-5v-56c0-2.762,2.238-5,5-5s5,2.238,5,5v56    C380.81,332.579,378.571,334.817,375.81,334.817z" style="fill:#415A6B;"/><path d="M239.2,145.628L239.2,145.628c-2.762-0.001-5-2.239-5-5.001l0.01-91.34    c0.001-2.761,2.239-4.999,5-4.999c0.001,0,0,0,0.001,0c2.761,0,5,2.239,4.999,5l-0.01,91.34    C244.2,143.39,241.961,145.628,239.2,145.628z" style="fill:#415A6B;"/><path d="M239.2,270.478c-2.761,0-5-2.238-5-5v-56c0-2.761,2.239-5,5-5c2.762,0,5,2.239,5,5v56    C244.2,268.239,241.962,270.478,239.2,270.478z" style="fill:#415A6B;"/><path d="M239.2,396.428c-2.761,0-5-2.238-5-5v-55.09c0-2.762,2.239-5,5-5c2.762,0,5,2.238,5,5v55.09    C244.2,394.189,241.962,396.428,239.2,396.428z" style="fill:#415A6B;"/><path d="M103.971,207.958L103.971,207.958c-2.763-0.001-5.001-2.24-5-5.001l0.02-91.341    c0.001-2.761,2.239-4.999,5-4.999c0.001,0,0.001,0,0.001,0c2.762,0.001,5,2.24,4.999,5.001l-0.02,91.341    C108.97,205.72,106.731,207.958,103.971,207.958z" style="fill:#415A6B;"/><path d="M103.971,331.817c-2.762,0-5-2.238-5-5v-56c0-2.762,2.238-5,5-5c2.761,0,5,2.238,5,5v56    C108.971,329.579,106.731,331.817,103.971,331.817z" style="fill:#415A6B;"/><path d="M139.54,418.798c10.01,0,18.12,8.109,18.12,18.119c0,10.011-8.11,18.12-18.12,18.12    s-18.12-8.109-18.12-18.12C121.42,426.907,129.53,418.798,139.54,418.798z" style="fill:#EF3E5C;"/><path d="M124.92,447.417c0-10.01,8.11-18.119,18.12-18.119c6.007,0,11.314,2.933,14.611,7.432    c-0.103-9.922-8.165-17.932-18.111-17.932c-10.01,0-18.12,8.109-18.12,18.119c0,4.003,1.313,7.69,3.51,10.688    C124.929,447.542,124.92,447.48,124.92,447.417z" style="fill:#E42A53;"/><path d="M130.8,184.107c14.841,0,26.86,11.26,26.86,25.13c0,25.141-26.86,39.45-53.689,64.58    c-26.82-25.13-53.65-39.439-53.65-64.58c0-13.87,12.02-25.13,26.83-25.13c13.41,0,20.12,6.28,26.82,18.851    C110.681,190.388,117.391,184.107,130.8,184.107z" style="fill:#EF3E5C;"/><path d="M67.75,214.237c0-13.52,11.421-24.554,25.713-25.104c-4.27-3.342-9.396-5.026-16.313-5.026    c-14.811,0-26.83,11.26-26.83,25.13c0,25.141,26.83,39.45,53.65,64.58c1.951-1.827,3.901-3.592,5.842-5.313    C87.363,249.313,67.75,235.731,67.75,214.237z" style="fill:#E42A53;"/><path d="M402.631,188.107c14.84,0,26.859,11.26,26.859,25.13c0,25.141-26.859,39.45-53.689,64.58    c-26.82-25.13-53.65-39.439-53.65-64.58c0-13.87,12.02-25.13,26.83-25.13c13.41,0,20.12,6.28,26.82,18.851    C382.511,194.388,389.221,188.107,402.631,188.107z" style="fill:#EF3E5C;"/><path d="M339.58,218.237c0-13.52,11.421-24.554,25.713-25.104c-4.27-3.342-9.396-5.026-16.313-5.026    c-14.811,0-26.83,11.26-26.83,25.13c0,25.141,26.83,39.45,53.65,64.58c1.951-1.827,3.901-3.592,5.842-5.313    C359.193,253.313,339.58,239.731,339.58,218.237z" style="fill:#E42A53;"/><path d="M402.631,311.51c14.84,0,26.859,11.26,26.859,25.131c0,25.14-26.859,39.449-53.689,64.58    c-26.82-25.131-53.65-39.44-53.65-64.58c0-13.871,12.02-25.131,26.83-25.131c13.41,0,20.12,6.28,26.82,18.851    C382.511,317.79,389.221,311.51,402.631,311.51z" style="fill:#EF3E5C;"/><path d="M339.58,341.641c0-13.52,11.421-24.555,25.713-25.104c-4.27-3.343-9.396-5.027-16.313-5.027    c-14.811,0-26.83,11.26-26.83,25.131c0,25.14,26.83,39.449,53.65,64.58c1.951-1.828,3.901-3.592,5.842-5.314    C359.193,376.717,339.58,363.134,339.58,341.641z" style="fill:#E42A53;"/><path d="M266.02,123.588c14.841,0,26.861,11.26,26.861,25.13c0,25.14-26.861,39.45-53.69,64.58    c-26.82-25.13-53.65-39.44-53.65-64.58c0-13.87,12.021-25.13,26.83-25.13c13.41,0,20.12,6.279,26.82,18.85    C245.9,129.867,252.61,123.588,266.02,123.588z" style="fill:#EF3E5C;"/><path d="M202.97,153.718c0-13.52,11.421-24.554,25.714-25.104c-4.27-3.343-9.397-5.026-16.313-5.026    c-14.81,0-26.83,11.26-26.83,25.13c0,25.14,26.83,39.45,53.65,64.58c1.951-1.827,3.901-3.592,5.843-5.313    C222.584,188.794,202.97,175.211,202.97,153.718z" style="fill:#E42A53;"/><path d="M266.02,378.002c14.841,0,26.861,11.26,26.861,25.13c0,25.14-26.861,39.45-53.69,64.58    c-26.82-25.13-53.65-39.44-53.65-64.58c0-13.87,12.021-25.13,26.83-25.13c13.41,0,20.12,6.279,26.82,18.85    C245.9,384.281,252.61,378.002,266.02,378.002z" style="fill:#EF3E5C;"/><path d="M202.97,408.132c0-13.52,11.421-24.554,25.714-25.104c-4.27-3.343-9.397-5.026-16.313-5.026    c-14.81,0-26.83,11.26-26.83,25.13c0,25.14,26.83,39.45,53.65,64.58c1.951-1.827,3.901-3.592,5.843-5.313    C222.584,443.208,202.97,429.625,202.97,408.132z" style="fill:#E42A53;"/><path d="M130.8,313.342c14.841,0,26.86,11.26,26.86,25.131c0,25.14-26.86,39.449-53.689,64.58    c-26.82-25.131-53.65-39.44-53.65-64.58c0-13.871,12.02-25.131,26.83-25.131c13.41,0,20.12,6.28,26.82,18.851    C110.681,319.622,117.391,313.342,130.8,313.342z" style="fill:#EF3E5C;"/><path d="M67.75,343.473c0-13.52,11.421-24.555,25.713-25.104c-4.27-3.343-9.396-5.027-16.313-5.027    c-14.811,0-26.83,11.26-26.83,25.131c0,25.14,26.83,39.449,53.65,64.58c1.951-1.828,3.901-3.592,5.842-5.314    C87.363,378.549,67.75,364.966,67.75,343.473z" style="fill:#E42A53;"/><path d="M148.874,74.838c10.01,0,18.12,8.109,18.12,18.119c0,10.011-8.11,18.12-18.12,18.12    c-10.011,0-18.12-8.109-18.12-18.12C130.754,82.947,138.863,74.838,148.874,74.838z" style="fill:#EF3E5C;"/><path d="M134.254,103.457c0-10.01,8.109-18.119,18.12-18.119c6.007,0,11.313,2.933,14.61,7.432    c-0.102-9.922-8.164-17.932-18.11-17.932c-10.011,0-18.12,8.109-18.12,18.119c0,4.003,1.313,7.69,3.51,10.688    C134.263,103.582,134.254,103.521,134.254,103.457z" style="fill:#E42A53;"/><path d="M329.82,56.719c10.01,0,18.121,8.109,18.121,18.119c0,10.011-8.111,18.12-18.121,18.12    s-18.119-8.109-18.119-18.12C311.701,64.828,319.811,56.719,329.82,56.719z" style="fill:#EF3E5C;"/><path d="M315.201,85.338c0-10.01,8.109-18.119,18.119-18.119c6.008,0,11.314,2.933,14.611,7.432    c-0.102-9.922-8.164-17.932-18.111-17.932c-10.01,0-18.119,8.109-18.119,18.119c0,4.003,1.313,7.69,3.51,10.688    C315.209,85.463,315.201,85.401,315.201,85.338z" style="fill:#E42A53;"/><path d="M456.68,460.037h-117.8c-2.762,0-5-2.238-5-5s2.238-5,5-5h117.8c2.762,0,5,2.238,5,5    S459.441,460.037,456.68,460.037z" style="fill:#EF3E5C;"/><path d="M338.88,432.857H311.7c-2.762,0-5-2.238-5-5s2.238-5,5-5h27.18c2.762,0,5,2.238,5,5    S341.642,432.857,338.88,432.857z" style="fill:#415A6B;"/><path d="M266.02,253.01c14.841,0,26.861,11.26,26.861,25.13c0,25.14-26.861,39.45-53.69,64.58    c-26.82-25.13-53.65-39.44-53.65-64.58c0-13.87,12.021-25.13,26.83-25.13c13.41,0,20.12,6.279,26.82,18.85    C245.9,259.289,252.61,253.01,266.02,253.01z" style="fill:#EF3E5C;"/><path d="M202.97,283.14c0-13.52,11.421-24.554,25.714-25.104c-4.27-3.342-9.397-5.026-16.313-5.026    c-14.81,0-26.83,11.26-26.83,25.13c0,25.14,26.83,39.45,53.65,64.58c1.951-1.827,3.901-3.592,5.843-5.313    C222.584,318.216,202.97,304.633,202.97,283.14z" style="fill:#E42A53;"/></g></g><g id="Layer_1"/></svg>