<?xml version="1.0" ?><!DOCTYPE svg  PUBLIC '-//W3C//DTD SVG 1.1//EN'  'http://www.w3.org/Graphics/SVG/1.1/DTD/svg11.dtd'><svg height="512px" style="enable-background:new 0 0 512 512;" version="1.1" viewBox="0 0 512 512" width="512px" xml:space="preserve" xmlns="http://www.w3.org/2000/svg" xmlns:xlink="http://www.w3.org/1999/xlink"><g id="_x36_86_x2C__bulb_x2C__love_x2C__heart_x2C__wedding"><g><rect height="36.25" style="fill:#415A6B;" width="45.3" x="237.88" y="432.689"/><polygon points="245.714,440.855 283.18,440.855 283.18,432.689 237.88,432.689 237.88,468.939     245.714,468.939   " style="fill:#334B59;"/><polygon points="310.37,405.51 310.37,432.689 283.18,432.689 237.88,432.689 210.69,432.689     210.69,405.51   " style="fill:#49BAA5;"/><polygon points="218.356,413.01 310.37,413.01 310.37,405.51 210.69,405.51 210.69,432.689     218.356,432.689   " style="fill:#3DA38F;"/><polygon points="310.37,378.33 310.37,405.51 210.69,405.51 210.69,378.33 246.94,378.33 274.12,378.33       " style="fill:#415A6B;"/><polygon points="219.28,386.92 255.53,386.92 282.711,386.92 310.37,386.92 310.37,378.33 274.12,378.33     246.94,378.33 210.69,378.33 210.69,405.51 219.28,405.51   " style="fill:#334B59;"/><path d="M282.71,160.86c14.78,0,26.75,13.33,26.75,29.77c0,29.78-26.75,46.74-53.479,76.521    c-26.721-29.781-53.44-46.741-53.44-76.521c0-16.44,11.97-29.77,26.72-29.77c13.36,0,20.04,7.44,26.721,22.33    C262.67,168.3,269.34,160.86,282.71,160.86z" style="fill:#EF3E5C;"/><g><g><g><path d="M218.04,197.41c0-16.44,11.97-29.77,26.72-29.77c0.571,0,1.114,0.033,1.662,0.06       c-4.433-4.553-9.773-6.839-17.162-6.839c-14.75,0-26.72,13.33-26.72,29.77c0,29.78,26.72,46.74,53.44,76.521       c1.5-1.672,3-3.299,4.496-4.893C237.888,239.224,218.04,223.074,218.04,197.41z" style="fill:#E42A53;"/></g></g></g><path d="M274.12,378.33h-27.18h-36.25v-45.279c-42.561-17.762-72.49-59.762-72.49-108.771    c0-65.05,52.74-117.79,117.8-117.79s117.8,52.74,117.8,117.79c0,45.451-25.74,84.88-63.43,104.521v49.529H274.12z M309.46,190.63    c0-16.44-11.97-29.77-26.75-29.77c-13.37,0-20.04,7.44-26.729,22.33c-6.681-14.89-13.36-22.33-26.721-22.33    c-14.75,0-26.72,13.33-26.72,29.77c0,29.78,26.72,46.74,53.44,76.521C282.71,237.37,309.46,220.41,309.46,190.63z" style="fill:#FFD55E;"/><g><path d="M257.205,180.551c-1.392-1.552-2.875-2.868-4.479-3.948c1.103,2.01,2.18,4.191,3.255,6.587     C256.388,182.282,256.796,181.404,257.205,180.551z" style="fill:#EABD4E;"/><path d="M148.2,236.281c0-65.05,52.74-117.79,117.8-117.79c33.563,0,63.848,14.037,85.304,36.558     C329.888,125.623,295.181,106.49,256,106.49c-65.06,0-117.8,52.74-117.8,117.79c0,31.451,12.339,60.001,32.418,81.125     C156.522,285.99,148.2,262.113,148.2,236.281z" style="fill:#EABD4E;"/></g><path d="M346.61,410.51H174.45c-2.761,0-5-2.238-5-5s2.239-5,5-5h172.16c2.762,0,5,2.238,5,5    S349.372,410.51,346.61,410.51z" style="fill:#EF3E5C;"/><path d="M393.718,347.08c-1.151,0-2.307-0.395-3.25-1.203c-2.098-1.795-2.342-4.951-0.546-7.049    c27.276-31.863,42.298-72.543,42.298-114.548c0-97.168-79.052-176.22-176.22-176.22S79.78,127.112,79.78,224.28    c0,42.001,15.019,82.681,42.289,114.548c1.795,2.1,1.55,5.256-0.548,7.051c-2.099,1.795-5.256,1.549-7.05-0.549    c-28.82-33.678-44.691-76.668-44.691-121.05c0-102.682,83.538-186.22,186.22-186.22s186.22,83.538,186.22,186.22    c0,44.388-15.875,87.378-44.702,121.052C396.529,346.486,395.127,347.08,393.718,347.08z" style="fill:#FFD55E;"/><path d="M274.12,383.33c-2.762,0-5-2.238-5-5v-72.49c0-2.762,2.238-5,5-5s5,2.238,5,5v72.49    C279.12,381.092,276.882,383.33,274.12,383.33z" style="fill:#EABD4E;"/><path d="M246.94,383.33c-2.762,0-5-2.238-5-5v-72.49c0-2.762,2.238-5,5-5c2.761,0,5,2.238,5,5v72.49    C251.94,381.092,249.701,383.33,246.94,383.33z" style="fill:#EABD4E;"/><path d="M410.04,473.939h-299.02c-2.762,0-5-2.238-5-5s2.238-5,5-5h299.02c2.762,0,5,2.238,5,5    S412.802,473.939,410.04,473.939z" style="fill:#FFD55E;"/><path d="M346.61,383.33H174.45c-2.761,0-5-2.238-5-5s2.239-5,5-5h172.16c2.762,0,5,2.238,5,5    S349.372,383.33,346.61,383.33z" style="fill:#EF3E5C;"/></g></g><g id="Layer_1"/></svg>