<?xml version="1.0" ?><!DOCTYPE svg  PUBLIC '-//W3C//DTD SVG 1.1//EN'  'http://www.w3.org/Graphics/SVG/1.1/DTD/svg11.dtd'><svg height="512px" style="enable-background:new 0 0 512 512;" version="1.1" viewBox="0 0 512 512" width="512px" xml:space="preserve" xmlns="http://www.w3.org/2000/svg" xmlns:xlink="http://www.w3.org/1999/xlink"><g id="_x37_23_x2C__popcone_x2C__love_x2C__heart_x2C__wedding"><g><polygon points="287.111,387.391 287.711,387.391 287.711,414.57 287.711,468.939 206.161,468.939     206.161,441.75 206.161,387.391 208.581,387.391   " style="fill:#49BAA5;"/><polygon points="215.226,450.334 215.226,395.975 217.646,395.975 287.711,395.975 287.711,387.391     287.111,387.391 208.581,387.391 206.161,387.391 206.161,441.75 206.161,468.939 215.226,468.939   " style="fill:#3DA591;"/><path d="M100.69,267.99c7.04,7.049,6.1,22.119,5.13,37.189c-15.06,0.961-30.12,1.891-37.17-5.15    c-3.89-3.889-3.46-10.639,0.95-15.049c4.01-4,7.77-4.24,13.29-2.721c-1.52-5.529-1.26-9.311,2.74-13.311    C90.05,264.529,96.8,264.109,100.69,267.99z" style="fill:#EF3E5C;"/><g><g><g><path d="M100.69,267.99c-3.89-3.881-10.64-3.461-15.06,0.959c-2.874,2.873-3.81,5.637-3.55,9.014       c4.345-3.213,10.123-3.201,13.609,0.277c5.472,5.479,6.118,15.809,5.681,27.213c1.479-0.086,2.963-0.178,4.45-0.273       C106.791,290.109,107.73,275.039,100.69,267.99z" style="fill:#E42A53;"/></g></g></g><path d="M392.99,331.43c7.051,7.041,6.109,22.109,5.141,37.18c-15.051,0.961-30.131,1.9-37.17-5.15    c-3.891-3.879-3.461-10.629,0.959-15.049c4-4,7.76-4.24,13.291-2.721c-1.531-5.52-1.27-9.299,2.73-13.311    C382.361,327.971,389.111,327.539,392.99,331.43z" style="fill:#EF3E5C;"/><g><g><g><path d="M392.99,331.43c-3.879-3.891-10.629-3.459-15.049,0.949c-2.783,2.791-3.754,5.471-3.572,8.701       c4.348-3.225,10.139-3.227,13.621,0.268c5.533,5.525,6.139,16.002,5.678,27.537c1.482-0.088,2.973-0.18,4.463-0.275       C399.1,353.539,400.041,338.471,392.99,331.43z" style="fill:#E42A53;"/></g></g></g><path d="M442.391,284.98c4.42,4.42,4.85,11.17,0.959,15.049c-7.049,7.051-22.109,6.111-37.189,5.131    c-0.949-15.051-1.891-30.121,5.16-37.16c3.881-3.891,10.631-3.461,15.051,0.949c4,4.01,4.24,7.771,2.709,13.291    C434.611,280.721,438.391,280.98,442.391,284.98z" style="fill:#EF3E5C;"/><g><g><g><path d="M417.488,275.832c3.123-3.131,8.102-3.457,12.232-1.17c-0.424-1.988-1.465-3.824-3.35-5.713       c-4.42-4.41-11.17-4.84-15.051-0.949c-7.051,7.039-6.109,22.109-5.16,37.16c1.918,0.125,3.834,0.248,5.734,0.355       C411.289,293.15,411.611,281.701,417.488,275.832z" style="fill:#E42A53;"/></g></g></g><path d="M337.551,133.67c7.5,0,13.59,6.09,13.59,13.59c0,7.51-6.09,13.6-13.59,13.6    c-7.51,0-13.59-6.09-13.59-13.6C323.961,139.76,330.041,133.67,337.551,133.67z" style="fill:#F7B64C;"/><path d="M340.383,142.73c4.359,0,8.232,2.066,10.721,5.262c0.012-0.244,0.037-0.485,0.037-0.732    c0-7.5-6.09-13.59-13.59-13.59c-7.51,0-13.59,6.09-13.59,13.59c0,3.146,1.076,6.035,2.869,8.339    C327.207,148.436,333.117,142.73,340.383,142.73z" style="fill:#E2A040;"/><path d="M165.391,142.73c7.5,0,13.59,6.09,13.59,13.6c0,7.5-6.09,13.59-13.59,13.59    c-7.51,0-13.6-6.09-13.6-13.59C151.791,148.82,157.88,142.73,165.391,142.73z" style="fill:#F7B64C;"/><path d="M157.458,164.659c0-7.51,6.09-13.6,13.6-13.6c2.811,0,5.424,0.855,7.593,2.321    c-1.349-6.091-6.772-10.65-13.26-10.65c-7.51,0-13.6,6.09-13.6,13.6c0,4.687,2.378,8.823,5.995,11.267    C157.576,166.649,157.458,165.668,157.458,164.659z" style="fill:#E2A040;"/><path d="M246.94,97.43c7.5,0,13.591,6.08,13.591,13.59c0,7.51-6.091,13.59-13.591,13.59    c-7.51,0-13.6-6.08-13.6-13.59C233.34,103.51,239.431,97.43,246.94,97.43z" style="fill:#F7B64C;"/><path d="M249.607,106.19c4.461,0,8.413,2.161,10.891,5.485c0.01-0.219,0.033-0.434,0.033-0.655    c0-7.51-6.091-13.59-13.591-13.59c-7.51,0-13.6,6.08-13.6,13.59c0,3.042,1.012,5.84,2.7,8.104    C236.385,111.921,242.319,106.19,249.607,106.19z" style="fill:#E2A040;"/><path d="M372.031,132.98c20.039,2.88,33.479,8.2,33.479,14.28c0,6.09-13.439,11.41-33.479,14.29    c12.129,16.2,15.709,30.65,11.41,34.95c-4.371-6.17-10.91-10.7-18.512-12.47c-2.289-0.53-4.68-0.82-7.139-0.82    c-1.25,0-2.471,0.07-3.68,0.21c-0.881,0.11-1.74,0.25-2.592,0.43c-7.01,1.42-13.17,5.16-17.639,10.4    c-2.25-15.14-15.301-26.75-31.07-26.75c-1.43,0-2.83,0.11-4.199,0.3c-4.811,0.64-9.271,2.37-13.141,4.93    c-2.451,1.63-4.66,3.59-6.561,5.82c-0.49-3.29-1.49-6.41-2.91-9.28c-3.389-6.82-9.18-12.22-16.26-15.12    c-3.67-1.51-7.68-2.35-11.9-2.35c-4.86,0-9.46,1.1-13.56,3.07c-0.35,0.17-0.69,0.36-1.04,0.54c-4.56,2.4-8.45,5.89-11.34,10.12    c-1.07,1.56-2.01,3.21-2.78,4.95c-1.12,2.53-1.92,5.24-2.34,8.07c-2.35-2.75-5.17-5.09-8.33-6.9c-1.19-0.68-2.43-1.29-3.71-1.81    c-3.66-1.5-7.67-2.34-11.87-2.34c-15.76,0-28.81,11.61-31.07,26.75c-5.76-6.75-14.32-11.04-23.9-11.04    c-3.03,0-5.96,0.43-8.73,1.23c-3.7,1.07-7.12,2.81-10.13,5.07c2.56-5.43,6.61-11.89,11.86-18.9c-20.03-2.88-33.47-8.2-33.47-14.28    c0-6.09,13.44-11.41,33.47-14.29c-12.13-16.2-17.87-29.47-13.57-33.77c4.3-4.3,17.57,1.44,33.77,13.57    c2.88-20.03,8.2-33.47,14.29-33.47c6.08,0,11.4,13.44,14.28,33.47c1.86-1.39,3.69-2.7,5.46-3.92c-3.95-2.1-6.15-4.44-6.15-6.9    c0-6.08,13.44-11.4,33.47-14.28c-12.13-16.21-17.87-29.47-13.57-33.77c4.3-4.31,17.57,1.44,33.77,13.56    c2.89-20.03,8.2-33.47,14.29-33.47c6.08,0,11.399,13.44,14.28,33.47c16.199-12.12,29.471-17.87,33.77-13.56    c4.301,4.3-1.439,17.56-13.57,33.77c3.301,0.47,6.42,1.01,9.33,1.61c5.27-2.44,17.65,3.31,32.51,14.43    c2.891-20.03,8.201-33.47,14.291-33.47c6.08,0,11.4,13.44,14.279,33.47c16.211-12.13,29.471-17.87,33.77-13.57    C389.9,103.51,384.16,116.78,372.031,132.98z M351.141,147.26c0-7.5-6.09-13.59-13.59-13.59c-7.51,0-13.59,6.09-13.59,13.59    c0,7.51,6.08,13.6,13.59,13.6C345.051,160.86,351.141,154.77,351.141,147.26z M260.531,111.02c0-7.51-6.091-13.59-13.591-13.59    c-7.51,0-13.6,6.08-13.6,13.59c0,7.51,6.09,13.59,13.6,13.59C254.44,124.61,260.531,118.53,260.531,111.02z M178.98,156.33    c0-7.51-6.09-13.6-13.59-13.6c-7.51,0-13.6,6.09-13.6,13.6c0,7.5,6.09,13.59,13.6,13.59    C172.891,169.92,178.98,163.83,178.98,156.33z" style="fill:#EF3E5C;"/><g><g><g><path d="M106.491,163.663c0-6.09,13.44-11.41,33.47-14.29c-12.13-16.2-17.87-29.47-13.57-33.77       c4.3-4.3,17.57,1.44,33.77,13.57c2.649-18.427,7.365-31.268,12.845-33.207c-2.281-4.849-4.87-7.597-7.615-7.597       c-6.09,0-11.41,13.44-14.29,33.47c-16.2-12.13-29.47-17.87-33.77-13.57c-4.3,4.3,1.44,17.57,13.57,33.77       c-20.03,2.88-33.47,8.2-33.47,14.29c0,3.034,3.347,5.878,9.188,8.325C106.539,164.326,106.491,163.996,106.491,163.663z" style="fill:#E42A53;"/></g></g></g><path d="M208.581,387.391c0,0-102.09-170.061-102.09-172.771c0-10.27,4.93-19.38,12.55-25.11    c3.01-2.26,6.43-4,10.13-5.07c2.77-0.8,5.7-1.23,8.73-1.23c9.58,0,18.14,4.29,23.9,11.04c2.26-15.14,15.31-26.75,31.07-26.75    c4.2,0,8.21,0.84,11.87,2.34c1.28,0.52,2.52,1.13,3.71,1.81c3.16,1.81,5.98,4.15,8.33,6.9c0.42-2.83,1.22-5.54,2.34-8.07    c0.77-1.74,1.71-3.39,2.78-4.95c2.89-4.23,6.78-7.72,11.34-10.12c0.35-0.18,0.69-0.37,1.04-0.54c4.1-1.97,8.7-3.07,13.56-3.07    c4.22,0,8.23,0.84,11.9,2.35c7.08,2.9,12.871,8.3,16.26,15.12c1.42,2.87,2.42,5.99,2.91,9.28c1.9-2.23,4.109-4.19,6.561-5.82    c3.869-2.56,8.33-4.29,13.141-4.93c1.369-0.19,2.77-0.3,4.199-0.3c15.77,0,28.82,11.61,31.07,26.75    c4.469-5.24,10.629-8.98,17.639-10.4c0.852-0.18,1.711-0.32,2.592-0.43c1.209-0.14,2.43-0.21,3.68-0.21    c2.459,0,4.85,0.29,7.139,0.82c7.602,1.77,14.141,6.3,18.512,12.47c3.619,5.12,5.76,11.37,5.76,18.12    c0,2.71-102.09,172.771-102.09,172.771H208.581z" style="fill:#415A6B;"/><g><path d="M121.083,219.62c0-10.27,4.93-19.38,12.55-25.11c3.01-2.26,6.43-4,10.13-5.07     c2.77-0.8,5.7-1.23,8.73-1.23c0.865,0,1.718,0.047,2.565,0.116c-4.931-3.228-10.818-5.116-17.158-5.116     c-3.03,0-5.96,0.43-8.73,1.23c-3.7,1.07-7.12,2.81-10.13,5.07c-7.62,5.73-12.55,14.84-12.55,25.11     c0,2.71,102.09,172.771,102.09,172.771h11.593C203.315,359.281,121.083,222.052,121.083,219.62z" style="fill:#344C59;"/></g><path d="M277.711,419.57h-45.3c-2.761,0-5-2.238-5-5s2.239-5,5-5h45.3c2.762,0,5,2.238,5,5    S280.473,419.57,277.711,419.57z" style="fill:#3DA591;"/><path d="M268.596,446.75h-54.37c-2.761,0-5-2.238-5-5s2.239-5,5-5h54.37c2.762,0,5,2.238,5,5    S271.357,446.75,268.596,446.75z" style="fill:#3DA591;"/><path d="M332.562,265.531c-0.297,0-0.598-0.027-0.9-0.082c-97.52-17.728-187.518-0.195-188.416-0.016    c-2.705,0.539-5.341-1.217-5.882-3.924c-0.541-2.709,1.215-5.341,3.922-5.883c0.916-0.184,92.694-18.097,192.165-0.017    c2.717,0.494,4.519,3.097,4.024,5.813C337.036,263.838,334.932,265.531,332.562,265.531z" style="fill:#344C59;"/><path d="M319.436,312.482c-0.324,0-0.652-0.031-0.982-0.098l0,0c-0.449-0.088-45.496-8.779-116.203,0.059    c-2.746,0.338-5.239-1.602-5.582-4.342c-0.342-2.74,1.601-5.238,4.341-5.58c72.464-9.061,117.517-0.318,119.4,0.057    c2.709,0.543,4.465,3.176,3.924,5.885C323.857,310.84,321.77,312.482,319.436,312.482z" style="fill:#344C59;"/><path d="M396.451,419.57H333.02c-2.762,0-5-2.238-5-5s2.238-5,5-5h63.432c2.762,0,5,2.238,5,5    S399.213,419.57,396.451,419.57z" style="fill:#EF3E5C;"/><path d="M160.851,419.57h-63.42c-2.761,0-5-2.238-5-5s2.239-5,5-5h63.42c2.761,0,5,2.238,5,5    S163.612,419.57,160.851,419.57z" style="fill:#EF3E5C;"/></g></g><g id="Layer_1"/></svg>