<?xml version="1.0" ?><!DOCTYPE svg  PUBLIC '-//W3C//DTD SVG 1.1//EN'  'http://www.w3.org/Graphics/SVG/1.1/DTD/svg11.dtd'><svg height="512px" style="enable-background:new 0 0 512 512;" version="1.1" viewBox="0 0 512 512" width="512px" xml:space="preserve" xmlns="http://www.w3.org/2000/svg" xmlns:xlink="http://www.w3.org/1999/xlink"><g id="_x36_06_x2C__Love_x2C__tree_x2C__heart_x2C__valentine_x2C__valentine_x27_s_day_x2C_"><g><path d="M272.746,45.59c10.021,0,18.141,8.271,18.141,18.46c0,18.46-18.141,28.98-36.26,47.44    c-18.12-18.46-36.229-28.98-36.229-47.44c0-10.189,8.11-18.46,18.11-18.46c9.06,0,13.59,4.61,18.12,13.851    C259.156,50.2,263.688,45.59,272.746,45.59z" style="fill:#EF3E5C;"/><g><g><g><path d="M231.511,67.3c0-9.36,6.849-17.081,15.714-18.279c-2.823-2.287-6.209-3.431-10.719-3.431       c-10,0-18.11,8.271-18.11,18.46c0,18.46,18.11,28.98,36.229,47.44c1.614-1.645,3.227-3.224,4.829-4.753       C244.484,92.861,231.511,82.924,231.511,67.3z" style="fill:#E42A53;"/></g></g></g><path d="M362.377,364.681c-1.279,0-2.557-0.487-3.533-1.462c-0.34-0.336-23.91-23.399-38.242-9.073    c-1.951,1.953-5.119,1.953-7.07,0c-1.953-1.952-1.953-5.118,0-7.07c9.076-9.076,21.256-10.182,35.223-3.196    c9.676,4.84,16.857,11.965,17.158,12.267c1.953,1.952,1.953,5.118,0,7.07C364.936,364.192,363.656,364.681,362.377,364.681z" style="fill:#924B35;"/><path d="M305.012,328.432c-0.324,0-0.654-0.032-0.984-0.098c-2.709-0.542-4.465-3.177-3.924-5.884    c9.15-45.741,44.557-56.999,48.563-58.132c0.449-0.124,0.688-0.166,0.688-0.166l1.906,9.816l0.121-0.025    c-3.398,0.961-33.486,10.556-41.471,50.468C309.436,326.788,307.348,328.432,305.012,328.432z" style="fill:#924B35;"/><path d="M288.887,265c-2.762,0-5-2.238-5-5c0-26.493,10.82-41.185,19.895-48.845    c9.953-8.399,20-10.36,20.424-10.439c2.713-0.511,5.326,1.278,5.836,3.992c0.508,2.707-1.27,5.313-3.971,5.832    c-1.34,0.266-32.184,6.866-32.184,49.46C293.887,262.762,291.648,265,288.887,265z" style="fill:#924B35;"/><path d="M271.764,201.571c-0.273,0-0.551-0.022-0.828-0.069c-2.725-0.454-4.564-3.03-4.109-5.754    c8.709-52.24,63.723-72.521,74.664-76.056c0.924-0.293,1.41-0.428,1.41-0.428c2.66-0.737,5.418,0.816,6.158,3.475    s-0.809,5.413-3.465,6.156c-0.059,0.016-0.426,0.121-1.059,0.321c-9.943,3.214-60.088,21.646-67.846,68.176    C276.281,199.838,274.164,201.57,271.764,201.571z" style="fill:#924B35;"/><path d="M146.837,365.681c-1.28,0-2.559-0.488-3.536-1.465c-1.953-1.952-1.953-5.118,0-7.07    c0.301-0.302,7.482-7.427,17.159-12.267c13.966-6.986,26.146-5.881,35.222,3.196c1.953,1.952,1.953,5.118,0,7.07    c-1.953,1.953-5.118,1.953-7.071,0c-2.17-2.17-8.776-8.773-23.678-1.323c-8.242,4.122-14.499,10.332-14.561,10.394    C149.396,365.192,148.117,365.681,146.837,365.681z" style="fill:#924B35;"/><path d="M201.202,329.432c-2.334,0-4.422-1.644-4.897-4.021c-7.984-39.91-38.073-49.507-41.478-50.47    l0.123,0.026l1.915-9.814c0,0,0.234,0.041,0.655,0.157c4.036,1.142,39.441,12.4,48.591,58.14c0.542,2.707-1.214,5.342-3.922,5.884    C201.857,329.399,201.527,329.432,201.202,329.432z" style="fill:#924B35;"/><path d="M219.327,266c-2.761,0-5-2.238-5-5c0-42.925-31.841-49.396-32.162-49.456    c-2.714-0.509-4.501-3.122-3.992-5.836c0.509-2.715,3.125-4.504,5.836-3.992c0.423,0.079,10.47,2.04,20.423,10.439    c9.076,7.659,19.896,22.352,19.896,48.845C224.327,263.762,222.088,266,219.327,266z" style="fill:#924B35;"/><path d="M237.451,202.571c-2.4,0-4.518-1.733-4.926-4.179c-7.758-46.528-57.902-64.962-67.875-68.185    c-0.619-0.196-0.99-0.302-1.032-0.313c-2.655-0.747-4.202-3.502-3.46-6.158c0.742-2.655,3.496-4.208,6.154-3.473    c0,0,0.488,0.136,1.384,0.419c10.969,3.545,65.983,23.826,74.694,76.065c0.454,2.724-1.386,5.3-4.11,5.754    C238.001,202.549,237.724,202.571,237.451,202.571z" style="fill:#924B35;"/><path d="M150.694,355.771c4.86,4.87,4.79,12.83-0.17,17.79c-8.97,8.97-22.89,5.279-40.67,5.439    c0.17-17.779-3.54-31.71,5.43-40.68c4.96-4.96,12.92-5.03,17.8-0.16c4.4,4.4,4.36,8.851,2.07,15.54    C141.844,351.41,146.294,351.37,150.694,355.771z" style="fill:#EF3E5C;"/><g><g><g><path d="M120.933,348.78c4.31-4.31,10.882-4.923,15.733-1.815c0.174-3.307-0.843-6.065-3.583-8.805       c-4.88-4.87-12.84-4.8-17.8,0.16c-8.97,8.97-5.26,22.9-5.43,40.68c1.846-0.017,3.647,0.01,5.408,0.058       C114.686,366.198,113.795,355.918,120.933,348.78z" style="fill:#E42A53;"/></g></g></g><path d="M166.387,265.13c-2.99,9.54-13.53,16.37-24.07,27.12c-12.46-12.699-24.93-19.93-24.93-32.62    c0-7,5.58-12.689,12.47-12.689c6.23,0,9.34,3.17,12.46,9.52c3.11-6.35,6.22-9.52,12.45-9.52c6.88,0,12.46,5.689,12.46,12.689    C167.227,261.58,166.937,263.4,166.387,265.13z" style="fill:#EF3E5C;"/><g><g><g><path d="M127.587,262.01c0-6.126,4.273-11.248,9.958-12.432c-2.005-1.753-4.414-2.638-7.688-2.638       c-6.89,0-12.47,5.689-12.47,12.689c0,12.69,12.47,19.921,24.93,32.62c1.279-1.305,2.558-2.55,3.824-3.751       C136.131,279.279,127.587,272.514,127.587,262.01z" style="fill:#E42A53;"/></g></g></g><path d="M190.546,173.89c6.88,0,12.46,5.681,12.46,12.69c0,12.69-12.46,19.92-24.91,32.62    c-12.46-12.7-24.93-19.93-24.93-32.62c0-7.01,5.58-12.69,12.47-12.69c6.23,0,9.35,3.171,12.46,9.521    C181.206,177.061,184.326,173.89,190.546,173.89z" style="fill:#EF3E5C;"/><g><g><g><path d="M164.025,189.58c0-6.136,4.274-11.252,9.96-12.434c-2.135-2.166-4.71-3.257-8.35-3.257       c-6.89,0-12.47,5.681-12.47,12.69c0,12.69,12.47,19.92,24.93,32.62c1.277-1.303,2.553-2.545,3.817-3.744       C172.193,206.545,164.025,199.85,164.025,189.58z" style="fill:#E42A53;"/></g></g></g><path d="M174.181,130.45c-0.01,0.28,0,0.57,0,0.851c-25.86-0.25-46.12,5.14-59.18-7.91    c-7.2-7.21-7.31-18.79-0.22-25.88c6.4-6.41,12.87-6.34,22.6-3.021c-3.33-9.729-3.39-16.199,3.02-22.6    c7.07-7.07,18.65-6.97,25.86,0.24C179.181,85.051,174.061,104.98,174.181,130.45z" style="fill:#EF3E5C;"/><g><g><g><path d="M166.261,72.131c-7.21-7.21-18.79-7.311-25.86-0.24c-2.672,2.668-4.207,5.352-4.862,8.275       c6.7-2.969,14.894-1.668,20.476,3.914c11.004,11.004,8.922,27.098,8.137,47.365c3.242-0.11,6.584-0.178,10.029-0.145       c0-0.28-0.01-0.57,0-0.851C174.061,104.98,179.181,85.051,166.261,72.131z" style="fill:#E42A53;"/></g></g></g><path d="M396.711,337.039c8.971,8.97,5.271,22.9,5.432,40.68c-17.781-0.16-31.701,3.53-40.67-5.439    c-4.961-4.96-5.031-12.92-0.17-17.79c4.398-4.4,8.85-4.36,15.539-2.07c-2.289-6.689-2.33-11.14,2.07-15.54    C383.791,332.009,391.752,332.079,396.711,337.039z" style="fill:#EF3E5C;"/><g><g><g><path d="M396.711,337.039c-4.959-4.96-12.92-5.03-17.799-0.16c-2.629,2.628-3.662,5.278-3.59,8.408       c4.771-2.641,10.943-1.901,15.057,2.212c7.141,7.141,6.252,17.429,5.674,30.297c1.977-0.061,4.006-0.096,6.09-0.077       C401.982,359.939,405.682,346.009,396.711,337.039z" style="fill:#E42A53;"/></g></g></g><path d="M343.787,269.13c-0.551-1.729-0.84-3.55-0.84-5.5c0-7,5.58-12.689,12.459-12.689    c6.23,0,9.34,3.17,12.451,9.52c3.119-6.35,6.229-9.52,12.459-9.52c6.891,0,12.471,5.689,12.471,12.689    c0,12.69-12.471,19.921-24.93,32.62C357.316,285.5,346.777,278.67,343.787,269.13z" style="fill:#EF3E5C;"/><g><g><g><path d="M380.316,250.94c-2.578,0-4.617,0.552-6.35,1.639c3.791,2.179,6.354,6.311,6.354,11.051       c0,10.554-8.625,17.333-18.693,26.62c2.037,1.881,4.133,3.86,6.23,6c12.459-12.699,24.93-19.93,24.93-32.62       C392.787,256.63,387.207,250.94,380.316,250.94z" style="fill:#E42A53;"/></g></g></g><path d="M352.438,178.39c6.889,0,12.469,5.681,12.469,12.69c0,12.69-12.469,19.92-24.93,32.62    c-12.449-12.7-24.91-19.93-24.91-32.62c0-7.01,5.58-12.69,12.461-12.69c6.219,0,9.34,3.171,12.449,9.521    C343.088,181.561,346.207,178.39,352.438,178.39z" style="fill:#EF3E5C;"/><g><g><g><path d="M352.438,178.39c-4.129,0-6.889,1.401-9.188,4.188c5.383,1.406,9.363,6.361,9.363,12.277       c0,9.864-7.535,16.43-16.74,24.828c1.357,1.283,2.73,2.615,4.104,4.017c12.461-12.7,24.93-19.93,24.93-32.62       C364.906,184.07,359.326,178.39,352.438,178.39z" style="fill:#E42A53;"/></g></g></g><path d="M337.027,128.45c0.119-25.47-5-45.4,7.92-58.32c7.199-7.21,18.789-7.31,25.859-0.24    c6.41,6.4,6.35,12.87,3.02,22.601c9.73-3.32,16.201-3.391,22.611,3.02c7.08,7.09,6.969,18.67-0.23,25.88    c-13.061,13.051-33.32,7.66-59.18,7.91C337.027,129.01,337.027,128.73,337.027,128.45z" style="fill:#EF3E5C;"/><g><g><g><path d="M355.195,80.635c5.439-5.447,13.383-6.83,19.992-4.134c-0.813-2.292-2.223-4.457-4.381-6.611       c-7.07-7.069-18.66-6.97-25.859,0.24c-12.92,12.92-7.801,32.851-7.92,58.32c0,0.28,0,0.56,0,0.85       c3.465-0.033,6.824,0.036,10.084,0.146C346.379,108.497,343.93,91.9,355.195,80.635z" style="fill:#E42A53;"/></g></g></g><polygon points="249.577,466.41 158.967,466.41 250.487,131.14 259.547,131.14 349.246,466.41   " style="fill:#743629;"/><polygon points="257.605,153.024 265.402,153.024 259.547,131.14 250.487,131.14 158.967,466.41     172.06,466.41   " style="fill:#662E25;"/></g></g><g id="Layer_1"/></svg>